ply
format ascii 1.0
comment created by gply, a Houdini tool.
comment converted from .[b]geo
comment for more information about Houdini, try:
comment www.sidefx.com
element vertex 1221
property float x
property float y
property float z
element face 0
property list uchar int vertex_indices
end_header
-0.75 -0.450000018 -0.450000018 
-0.75 -0.600000024 -0.150000006 
-0.75 -0.450000018 -0.300000012 
-0.75 -0.450000018 -0.150000006 
-0.75 -0.300000012 -0.450000018 
-0.75 -0.150000006 -0.600000024 
-0.75 -0.150000006 -0.450000018 
-0.900000036 -0.300000012 -0.150000006 
-0.900000036 -0.150000006 -0.300000012 
-0.900000036 -0.150000006 -0.150000006 
-0.75 -0.300000012 -0.300000012 
-0.75 -0.300000012 -0.150000006 
-0.75 -0.150000006 -0.300000012 
-0.75 -0.150000006 -0.150000006 
-0.450000018 -0.75 -0.450000018 
-0.600000024 -0.75 -0.150000006 
-0.450000018 -0.75 -0.300000012 
-0.450000018 -0.75 -0.150000006 
-0.450000018 -0.450000018 -0.75 
-0.600000024 -0.600000024 -0.450000018 
-0.600000024 -0.450000018 -0.600000024 
-0.600000024 -0.450000018 -0.450000018 
-0.450000018 -0.600000024 -0.600000024 
-0.450000018 -0.600000024 -0.450000018 
-0.450000018 -0.450000018 -0.600000024 
-0.450000018 -0.450000018 -0.450000018 
-0.600000024 -0.600000024 -0.300000012 
-0.600000024 -0.600000024 -0.150000006 
-0.600000024 -0.450000018 -0.300000012 
-0.600000024 -0.450000018 -0.150000006 
-0.450000018 -0.600000024 -0.300000012 
-0.450000018 -0.600000024 -0.150000006 
-0.450000018 -0.450000018 -0.300000012 
-0.450000018 -0.450000018 -0.150000006 
-0.600000024 -0.150000006 -0.75 
-0.450000018 -0.300000012 -0.75 
-0.450000018 -0.150000006 -0.75 
-0.600000024 -0.300000012 -0.600000024 
-0.600000024 -0.300000012 -0.450000018 
-0.600000024 -0.150000006 -0.600000024 
-0.600000024 -0.150000006 -0.450000018 
-0.450000018 -0.300000012 -0.600000024 
-0.450000018 -0.300000012 -0.450000018 
-0.450000018 -0.150000006 -0.600000024 
-0.450000018 -0.150000006 -0.450000018 
-0.600000024 -0.300000012 -0.300000012 
-0.600000024 -0.300000012 -0.150000006 
-0.600000024 -0.150000006 -0.300000012 
-0.600000024 -0.150000006 -0.150000006 
-0.450000018 -0.300000012 -0.300000012 
-0.450000018 -0.300000012 -0.150000006 
-0.450000018 -0.150000006 -0.300000012 
-0.450000018 -0.150000006 -0.150000006 
-0.300000012 -0.75 -0.450000018 
-0.150000006 -0.75 -0.600000024 
-0.150000006 -0.75 -0.450000018 
-0.300000012 -0.900000036 -0.300000012 
-0.300000012 -0.900000036 -0.150000006 
-0.300000012 -0.75 -0.300000012 
-0.300000012 -0.75 -0.150000006 
-0.150000006 -0.900000036 -0.300000012 
-0.150000006 -0.900000036 -0.150000006 
-0.150000006 -0.75 -0.300000012 
-0.150000006 -0.75 -0.150000006 
-0.300000012 -0.450000018 -0.75 
-0.150000006 -0.600000024 -0.75 
-0.150000006 -0.450000018 -0.75 
-0.300000012 -0.600000024 -0.600000024 
-0.300000012 -0.600000024 -0.450000018 
-0.300000012 -0.450000018 -0.600000024 
-0.300000012 -0.450000018 -0.450000018 
-0.150000006 -0.600000024 -0.600000024 
-0.150000006 -0.600000024 -0.450000018 
-0.150000006 -0.450000018 -0.600000024 
-0.150000006 -0.450000018 -0.450000018 
-0.300000012 -0.600000024 -0.300000012 
-0.300000012 -0.600000024 -0.150000006 
-0.300000012 -0.450000018 -0.300000012 
-0.300000012 -0.450000018 -0.150000006 
-0.150000006 -0.600000024 -0.300000012 
-0.150000006 -0.600000024 -0.150000006 
-0.150000006 -0.450000018 -0.300000012 
-0.150000006 -0.450000018 -0.150000006 
-0.300000012 -0.300000012 -0.75 
-0.300000012 -0.150000006 -0.900000036 
-0.300000012 -0.150000006 -0.75 
-0.150000006 -0.300000012 -0.900000036 
-0.150000006 -0.300000012 -0.75 
-0.150000006 -0.150000006 -0.900000036 
-0.150000006 -0.150000006 -0.75 
-0.300000012 -0.300000012 -0.600000024 
-0.300000012 -0.300000012 -0.450000018 
-0.300000012 -0.150000006 -0.600000024 
-0.300000012 -0.150000006 -0.450000018 
-0.150000006 -0.300000012 -0.600000024 
-0.150000006 -0.300000012 -0.450000018 
-0.150000006 -0.150000006 -0.600000024 
-0.150000006 -0.150000006 -0.450000018 
-0.300000012 -0.300000012 -0.300000012 
-0.300000012 -0.300000012 -0.150000006 
-0.300000012 -0.150000006 -0.300000012 
-0.300000012 -0.150000006 -0.150000006 
-0.150000006 -0.300000012 -0.300000012 
-0.150000006 -0.300000012 -0.150000006 
-0.150000006 -0.150000006 -0.300000012 
-0.150000006 -0.150000006 -0.150000006 
-0.75 -0.600000024 0 
-0.75 -0.600000024 0.150000006 
-0.75 -0.450000018 0 
-0.75 -0.450000018 0.150000006 
-0.75 -0.450000018 0.300000012 
-0.75 -0.450000018 0.450000018 
-0.900000036 -0.300000012 0 
-0.900000036 -0.300000012 0.150000006 
-0.900000036 -0.150000006 0 
-0.900000036 -0.150000006 0.150000006 
-0.75 -0.300000012 0 
-0.75 -0.300000012 0.150000006 
-0.75 -0.150000006 0 
-0.75 -0.150000006 0.150000006 
-0.900000036 -0.150000006 0.300000012 
-0.75 -0.300000012 0.300000012 
-0.75 -0.300000012 0.450000018 
-0.75 -0.150000006 0.300000012 
-0.75 -0.150000006 0.450000018 
-0.75 -0.150000006 0.600000024 
-0.600000024 -0.75 0 
-0.600000024 -0.75 0.150000006 
-0.450000018 -0.75 0 
-0.450000018 -0.75 0.150000006 
-0.450000018 -0.75 0.300000012 
-0.450000018 -0.75 0.450000018 
-0.600000024 -0.600000024 0 
-0.600000024 -0.600000024 0.150000006 
-0.600000024 -0.450000018 0 
-0.600000024 -0.450000018 0.150000006 
-0.450000018 -0.600000024 0 
-0.450000018 -0.600000024 0.150000006 
-0.450000018 -0.450000018 0 
-0.450000018 -0.450000018 0.150000006 
-0.600000024 -0.600000024 0.300000012 
-0.600000024 -0.600000024 0.450000018 
-0.600000024 -0.450000018 0.300000012 
-0.600000024 -0.450000018 0.450000018 
-0.450000018 -0.600000024 0.300000012 
-0.450000018 -0.600000024 0.450000018 
-0.450000018 -0.450000018 0.300000012 
-0.450000018 -0.450000018 0.450000018 
-0.600000024 -0.450000018 0.600000024 
-0.450000018 -0.600000024 0.600000024 
-0.450000018 -0.450000018 0.600000024 
-0.450000018 -0.450000018 0.75 
-0.600000024 -0.300000012 0 
-0.600000024 -0.300000012 0.150000006 
-0.600000024 -0.150000006 0 
-0.600000024 -0.150000006 0.150000006 
-0.450000018 -0.300000012 0 
-0.450000018 -0.300000012 0.150000006 
-0.450000018 -0.150000006 0 
-0.450000018 -0.150000006 0.150000006 
-0.600000024 -0.300000012 0.300000012 
-0.600000024 -0.300000012 0.450000018 
-0.600000024 -0.150000006 0.300000012 
-0.600000024 -0.150000006 0.450000018 
-0.450000018 -0.300000012 0.300000012 
-0.450000018 -0.300000012 0.450000018 
-0.450000018 -0.150000006 0.300000012 
-0.450000018 -0.150000006 0.450000018 
-0.600000024 -0.300000012 0.600000024 
-0.600000024 -0.150000006 0.600000024 
-0.600000024 -0.150000006 0.75 
-0.450000018 -0.300000012 0.600000024 
-0.450000018 -0.300000012 0.75 
-0.450000018 -0.150000006 0.600000024 
-0.450000018 -0.150000006 0.75 
-0.300000012 -0.900000036 0 
-0.300000012 -0.900000036 0.150000006 
-0.300000012 -0.75 0 
-0.300000012 -0.75 0.150000006 
-0.150000006 -0.900000036 0 
-0.150000006 -0.900000036 0.150000006 
-0.150000006 -0.75 0 
-0.150000006 -0.75 0.150000006 
-0.300000012 -0.900000036 0.300000012 
-0.300000012 -0.75 0.300000012 
-0.300000012 -0.75 0.450000018 
-0.150000006 -0.900000036 0.300000012 
-0.150000006 -0.75 0.300000012 
-0.150000006 -0.75 0.450000018 
-0.150000006 -0.75 0.600000024 
-0.300000012 -0.600000024 0 
-0.300000012 -0.600000024 0.150000006 
-0.300000012 -0.450000018 0 
-0.300000012 -0.450000018 0.150000006 
-0.150000006 -0.600000024 0 
-0.150000006 -0.600000024 0.150000006 
-0.150000006 -0.450000018 0 
-0.150000006 -0.450000018 0.150000006 
-0.300000012 -0.600000024 0.300000012 
-0.300000012 -0.600000024 0.450000018 
-0.300000012 -0.450000018 0.300000012 
-0.300000012 -0.450000018 0.450000018 
-0.150000006 -0.600000024 0.300000012 
-0.150000006 -0.600000024 0.450000018 
-0.150000006 -0.450000018 0.300000012 
-0.150000006 -0.450000018 0.450000018 
-0.300000012 -0.600000024 0.600000024 
-0.300000012 -0.450000018 0.600000024 
-0.300000012 -0.450000018 0.75 
-0.150000006 -0.600000024 0.600000024 
-0.150000006 -0.600000024 0.75 
-0.150000006 -0.450000018 0.600000024 
-0.150000006 -0.450000018 0.75 
-0.300000012 -0.300000012 0 
-0.300000012 -0.300000012 0.150000006 
-0.300000012 -0.150000006 0 
-0.300000012 -0.150000006 0.150000006 
-0.150000006 -0.300000012 0 
-0.150000006 -0.300000012 0.150000006 
-0.150000006 -0.150000006 0 
-0.150000006 -0.150000006 0.150000006 
-0.300000012 -0.300000012 0.300000012 
-0.300000012 -0.300000012 0.450000018 
-0.300000012 -0.150000006 0.300000012 
-0.300000012 -0.150000006 0.450000018 
-0.150000006 -0.300000012 0.300000012 
-0.150000006 -0.300000012 0.450000018 
-0.150000006 -0.150000006 0.300000012 
-0.150000006 -0.150000006 0.450000018 
-0.300000012 -0.300000012 0.600000024 
-0.300000012 -0.300000012 0.75 
-0.300000012 -0.150000006 0.600000024 
-0.300000012 -0.150000006 0.75 
-0.150000006 -0.300000012 0.600000024 
-0.150000006 -0.300000012 0.75 
-0.150000006 -0.150000006 0.600000024 
-0.150000006 -0.150000006 0.75 
-0.300000012 -0.150000006 0.900000036 
-0.150000006 -0.300000012 0.900000036 
-0.150000006 -0.150000006 0.900000036 
-0.75 0 -0.600000024 
-0.75 0 -0.450000018 
-0.75 0.150000006 -0.600000024 
-0.75 0.150000006 -0.450000018 
-0.900000036 0 -0.300000012 
-0.900000036 0 -0.150000006 
-0.900000036 0.150000006 -0.300000012 
-0.900000036 0.150000006 -0.150000006 
-0.75 0 -0.300000012 
-0.75 0 -0.150000006 
-0.75 0.150000006 -0.300000012 
-0.75 0.150000006 -0.150000006 
-0.75 0.300000012 -0.450000018 
-0.75 0.450000018 -0.450000018 
-0.900000036 0.300000012 -0.150000006 
-0.75 0.300000012 -0.300000012 
-0.75 0.300000012 -0.150000006 
-0.75 0.450000018 -0.300000012 
-0.75 0.450000018 -0.150000006 
-0.75 0.600000024 -0.150000006 
-0.600000024 0 -0.75 
-0.600000024 0.150000006 -0.75 
-0.450000018 0 -0.75 
-0.450000018 0.150000006 -0.75 
-0.600000024 0 -0.600000024 
-0.600000024 0 -0.450000018 
-0.600000024 0.150000006 -0.600000024 
-0.600000024 0.150000006 -0.450000018 
-0.450000018 0 -0.600000024 
-0.450000018 0 -0.450000018 
-0.450000018 0.150000006 -0.600000024 
-0.450000018 0.150000006 -0.450000018 
-0.600000024 0 -0.300000012 
-0.600000024 0 -0.150000006 
-0.600000024 0.150000006 -0.300000012 
-0.600000024 0.150000006 -0.150000006 
-0.450000018 0 -0.300000012 
-0.450000018 0 -0.150000006 
-0.450000018 0.150000006 -0.300000012 
-0.450000018 0.150000006 -0.150000006 
-0.450000018 0.300000012 -0.75 
-0.450000018 0.450000018 -0.75 
-0.600000024 0.300000012 -0.600000024 
-0.600000024 0.300000012 -0.450000018 
-0.600000024 0.450000018 -0.600000024 
-0.600000024 0.450000018 -0.450000018 
-0.450000018 0.300000012 -0.600000024 
-0.450000018 0.300000012 -0.450000018 
-0.450000018 0.450000018 -0.600000024 
-0.450000018 0.450000018 -0.450000018 
-0.600000024 0.300000012 -0.300000012 
-0.600000024 0.300000012 -0.150000006 
-0.600000024 0.450000018 -0.300000012 
-0.600000024 0.450000018 -0.150000006 
-0.450000018 0.300000012 -0.300000012 
-0.450000018 0.300000012 -0.150000006 
-0.450000018 0.450000018 -0.300000012 
-0.450000018 0.450000018 -0.150000006 
-0.600000024 0.600000024 -0.450000018 
-0.450000018 0.600000024 -0.600000024 
-0.450000018 0.600000024 -0.450000018 
-0.450000018 0.75 -0.450000018 
-0.600000024 0.600000024 -0.300000012 
-0.600000024 0.600000024 -0.150000006 
-0.600000024 0.75 -0.150000006 
-0.450000018 0.600000024 -0.300000012 
-0.450000018 0.600000024 -0.150000006 
-0.450000018 0.75 -0.300000012 
-0.450000018 0.75 -0.150000006 
-0.300000012 0 -0.900000036 
-0.300000012 0 -0.75 
-0.300000012 0.150000006 -0.900000036 
-0.300000012 0.150000006 -0.75 
-0.150000006 0 -0.900000036 
-0.150000006 0 -0.75 
-0.150000006 0.150000006 -0.900000036 
-0.150000006 0.150000006 -0.75 
-0.300000012 0 -0.600000024 
-0.300000012 0 -0.450000018 
-0.300000012 0.150000006 -0.600000024 
-0.300000012 0.150000006 -0.450000018 
-0.150000006 0 -0.600000024 
-0.150000006 0 -0.450000018 
-0.150000006 0.150000006 -0.600000024 
-0.150000006 0.150000006 -0.450000018 
-0.300000012 0 -0.300000012 
-0.300000012 0 -0.150000006 
-0.300000012 0.150000006 -0.300000012 
-0.300000012 0.150000006 -0.150000006 
-0.150000006 0 -0.300000012 
-0.150000006 0 -0.150000006 
-0.150000006 0.150000006 -0.300000012 
-0.150000006 0.150000006 -0.150000006 
-0.300000012 0.300000012 -0.75 
-0.300000012 0.450000018 -0.75 
-0.150000006 0.300000012 -0.900000036 
-0.150000006 0.300000012 -0.75 
-0.150000006 0.450000018 -0.75 
-0.300000012 0.300000012 -0.600000024 
-0.300000012 0.300000012 -0.450000018 
-0.300000012 0.450000018 -0.600000024 
-0.300000012 0.450000018 -0.450000018 
-0.150000006 0.300000012 -0.600000024 
-0.150000006 0.300000012 -0.450000018 
-0.150000006 0.450000018 -0.600000024 
-0.150000006 0.450000018 -0.450000018 
-0.300000012 0.300000012 -0.300000012 
-0.300000012 0.300000012 -0.150000006 
-0.300000012 0.450000018 -0.300000012 
-0.300000012 0.450000018 -0.150000006 
-0.150000006 0.300000012 -0.300000012 
-0.150000006 0.300000012 -0.150000006 
-0.150000006 0.450000018 -0.300000012 
-0.150000006 0.450000018 -0.150000006 
-0.150000006 0.600000024 -0.75 
-0.300000012 0.600000024 -0.600000024 
-0.300000012 0.600000024 -0.450000018 
-0.300000012 0.75 -0.450000018 
-0.150000006 0.600000024 -0.600000024 
-0.150000006 0.600000024 -0.450000018 
-0.150000006 0.75 -0.600000024 
-0.150000006 0.75 -0.450000018 
-0.300000012 0.600000024 -0.300000012 
-0.300000012 0.600000024 -0.150000006 
-0.300000012 0.75 -0.300000012 
-0.300000012 0.75 -0.150000006 
-0.150000006 0.600000024 -0.300000012 
-0.150000006 0.600000024 -0.150000006 
-0.150000006 0.75 -0.300000012 
-0.150000006 0.75 -0.150000006 
-0.300000012 0.900000036 -0.300000012 
-0.300000012 0.900000036 -0.150000006 
-0.150000006 0.900000036 -0.300000012 
-0.150000006 0.900000036 -0.150000006 
-0.900000036 0 0 
-0.900000036 0 0.150000006 
-0.900000036 0.150000006 0 
-0.900000036 0.150000006 0.150000006 
-0.75 0 0 
-0.75 0 0.150000006 
-0.75 0.150000006 0 
-0.75 0.150000006 0.150000006 
-0.900000036 0 0.300000012 
-0.900000036 0.150000006 0.300000012 
-0.75 0 0.300000012 
-0.75 0 0.450000018 
-0.75 0.150000006 0.300000012 
-0.75 0.150000006 0.450000018 
-0.75 0 0.600000024 
-0.75 0.150000006 0.600000024 
-0.900000036 0.300000012 0 
-0.900000036 0.300000012 0.150000006 
-0.75 0.300000012 0 
-0.75 0.300000012 0.150000006 
-0.75 0.450000018 0 
-0.75 0.450000018 0.150000006 
-0.75 0.300000012 0.300000012 
-0.75 0.300000012 0.450000018 
-0.75 0.450000018 0.300000012 
-0.75 0.450000018 0.450000018 
-0.75 0.600000024 0 
-0.75 0.600000024 0.150000006 
-0.600000024 0 0 
-0.600000024 0 0.150000006 
-0.600000024 0.150000006 0 
-0.600000024 0.150000006 0.150000006 
-0.450000018 0 0 
-0.450000018 0 0.150000006 
-0.450000018 0.150000006 0 
-0.450000018 0.150000006 0.150000006 
-0.600000024 0 0.300000012 
-0.600000024 0 0.450000018 
-0.600000024 0.150000006 0.300000012 
-0.600000024 0.150000006 0.450000018 
-0.450000018 0 0.300000012 
-0.450000018 0 0.450000018 
-0.450000018 0.150000006 0.300000012 
-0.450000018 0.150000006 0.450000018 
-0.600000024 0 0.600000024 
-0.600000024 0 0.75 
-0.600000024 0.150000006 0.600000024 
-0.600000024 0.150000006 0.75 
-0.450000018 0 0.600000024 
-0.450000018 0 0.75 
-0.450000018 0.150000006 0.600000024 
-0.450000018 0.150000006 0.75 
-0.600000024 0.300000012 0 
-0.600000024 0.300000012 0.150000006 
-0.600000024 0.450000018 0 
-0.600000024 0.450000018 0.150000006 
-0.450000018 0.300000012 0 
-0.450000018 0.300000012 0.150000006 
-0.450000018 0.450000018 0 
-0.450000018 0.450000018 0.150000006 
-0.600000024 0.300000012 0.300000012 
-0.600000024 0.300000012 0.450000018 
-0.600000024 0.450000018 0.300000012 
-0.600000024 0.450000018 0.450000018 
-0.450000018 0.300000012 0.300000012 
-0.450000018 0.300000012 0.450000018 
-0.450000018 0.450000018 0.300000012 
-0.450000018 0.450000018 0.450000018 
-0.600000024 0.300000012 0.600000024 
-0.600000024 0.450000018 0.600000024 
-0.450000018 0.300000012 0.600000024 
-0.450000018 0.300000012 0.75 
-0.450000018 0.450000018 0.600000024 
-0.450000018 0.450000018 0.75 
-0.600000024 0.600000024 0 
-0.600000024 0.600000024 0.150000006 
-0.600000024 0.75 0 
-0.600000024 0.75 0.150000006 
-0.450000018 0.600000024 0 
-0.450000018 0.600000024 0.150000006 
-0.450000018 0.75 0 
-0.450000018 0.75 0.150000006 
-0.600000024 0.600000024 0.300000012 
-0.600000024 0.600000024 0.450000018 
-0.450000018 0.600000024 0.300000012 
-0.450000018 0.600000024 0.450000018 
-0.450000018 0.75 0.300000012 
-0.450000018 0.75 0.450000018 
-0.450000018 0.600000024 0.600000024 
-0.300000012 0 0 
-0.300000012 0 0.150000006 
-0.300000012 0.150000006 0 
-0.300000012 0.150000006 0.150000006 
-0.150000006 0 0 
-0.150000006 0 0.150000006 
-0.150000006 0.150000006 0 
-0.150000006 0.150000006 0.150000006 
-0.300000012 0 0.300000012 
-0.300000012 0 0.450000018 
-0.300000012 0.150000006 0.300000012 
-0.300000012 0.150000006 0.450000018 
-0.150000006 0 0.300000012 
-0.150000006 0 0.450000018 
-0.150000006 0.150000006 0.300000012 
-0.150000006 0.150000006 0.450000018 
-0.300000012 0 0.600000024 
-0.300000012 0 0.75 
-0.300000012 0.150000006 0.600000024 
-0.300000012 0.150000006 0.75 
-0.150000006 0 0.600000024 
-0.150000006 0 0.75 
-0.150000006 0.150000006 0.600000024 
-0.150000006 0.150000006 0.75 
-0.300000012 0 0.900000036 
-0.300000012 0.150000006 0.900000036 
-0.150000006 0 0.900000036 
-0.150000006 0.150000006 0.900000036 
-0.300000012 0.300000012 0 
-0.300000012 0.300000012 0.150000006 
-0.300000012 0.450000018 0 
-0.300000012 0.450000018 0.150000006 
-0.150000006 0.300000012 0 
-0.150000006 0.300000012 0.150000006 
-0.150000006 0.450000018 0 
-0.150000006 0.450000018 0.150000006 
-0.300000012 0.300000012 0.300000012 
-0.300000012 0.300000012 0.450000018 
-0.300000012 0.450000018 0.300000012 
-0.300000012 0.450000018 0.450000018 
-0.150000006 0.300000012 0.300000012 
-0.150000006 0.300000012 0.450000018 
-0.150000006 0.450000018 0.300000012 
-0.150000006 0.450000018 0.450000018 
-0.300000012 0.300000012 0.600000024 
-0.300000012 0.300000012 0.75 
-0.300000012 0.450000018 0.600000024 
-0.300000012 0.450000018 0.75 
-0.150000006 0.300000012 0.600000024 
-0.150000006 0.300000012 0.75 
-0.150000006 0.450000018 0.600000024 
-0.150000006 0.450000018 0.75 
-0.150000006 0.300000012 0.900000036 
-0.300000012 0.600000024 0 
-0.300000012 0.600000024 0.150000006 
-0.300000012 0.75 0 
-0.300000012 0.75 0.150000006 
-0.150000006 0.600000024 0 
-0.150000006 0.600000024 0.150000006 
-0.150000006 0.75 0 
-0.150000006 0.75 0.150000006 
-0.300000012 0.600000024 0.300000012 
-0.300000012 0.600000024 0.450000018 
-0.300000012 0.75 0.300000012 
-0.300000012 0.75 0.450000018 
-0.150000006 0.600000024 0.300000012 
-0.150000006 0.600000024 0.450000018 
-0.150000006 0.75 0.300000012 
-0.150000006 0.75 0.450000018 
-0.300000012 0.600000024 0.600000024 
-0.150000006 0.600000024 0.600000024 
-0.150000006 0.600000024 0.75 
-0.150000006 0.75 0.600000024 
-0.300000012 0.900000036 0 
-0.300000012 0.900000036 0.150000006 
-0.150000006 0.900000036 0 
-0.150000006 0.900000036 0.150000006 
-0.300000012 0.900000036 0.300000012 
-0.150000006 0.900000036 0.300000012 
0 -0.75 -0.600000024 
0 -0.75 -0.450000018 
0.150000006 -0.75 -0.600000024 
0.150000006 -0.75 -0.450000018 
0 -0.900000036 -0.300000012 
0 -0.900000036 -0.150000006 
0 -0.75 -0.300000012 
0 -0.75 -0.150000006 
0.150000006 -0.900000036 -0.300000012 
0.150000006 -0.900000036 -0.150000006 
0.150000006 -0.75 -0.300000012 
0.150000006 -0.75 -0.150000006 
0 -0.600000024 -0.75 
0 -0.450000018 -0.75 
0.150000006 -0.600000024 -0.75 
0.150000006 -0.450000018 -0.75 
0 -0.600000024 -0.600000024 
0 -0.600000024 -0.450000018 
0 -0.450000018 -0.600000024 
0 -0.450000018 -0.450000018 
0.150000006 -0.600000024 -0.600000024 
0.150000006 -0.600000024 -0.450000018 
0.150000006 -0.450000018 -0.600000024 
0.150000006 -0.450000018 -0.450000018 
0 -0.600000024 -0.300000012 
0 -0.600000024 -0.150000006 
0 -0.450000018 -0.300000012 
0 -0.450000018 -0.150000006 
0.150000006 -0.600000024 -0.300000012 
0.150000006 -0.600000024 -0.150000006 
0.150000006 -0.450000018 -0.300000012 
0.150000006 -0.450000018 -0.150000006 
0 -0.300000012 -0.900000036 
0 -0.300000012 -0.75 
0 -0.150000006 -0.900000036 
0 -0.150000006 -0.75 
0.150000006 -0.300000012 -0.900000036 
0.150000006 -0.300000012 -0.75 
0.150000006 -0.150000006 -0.900000036 
0.150000006 -0.150000006 -0.75 
0 -0.300000012 -0.600000024 
0 -0.300000012 -0.450000018 
0 -0.150000006 -0.600000024 
0 -0.150000006 -0.450000018 
0.150000006 -0.300000012 -0.600000024 
0.150000006 -0.300000012 -0.450000018 
0.150000006 -0.150000006 -0.600000024 
0.150000006 -0.150000006 -0.450000018 
0 -0.300000012 -0.300000012 
0 -0.300000012 -0.150000006 
0 -0.150000006 -0.300000012 
0 -0.150000006 -0.150000006 
0.150000006 -0.300000012 -0.300000012 
0.150000006 -0.300000012 -0.150000006 
0.150000006 -0.150000006 -0.300000012 
0.150000006 -0.150000006 -0.150000006 
0.300000012 -0.75 -0.450000018 
0.450000018 -0.75 -0.450000018 
0.300000012 -0.900000036 -0.300000012 
0.300000012 -0.900000036 -0.150000006 
0.300000012 -0.75 -0.300000012 
0.300000012 -0.75 -0.150000006 
0.450000018 -0.75 -0.300000012 
0.450000018 -0.75 -0.150000006 
0.300000012 -0.450000018 -0.75 
0.450000018 -0.450000018 -0.75 
0.300000012 -0.600000024 -0.600000024 
0.300000012 -0.600000024 -0.450000018 
0.300000012 -0.450000018 -0.600000024 
0.300000012 -0.450000018 -0.450000018 
0.450000018 -0.600000024 -0.600000024 
0.450000018 -0.600000024 -0.450000018 
0.450000018 -0.450000018 -0.600000024 
0.450000018 -0.450000018 -0.450000018 
0.300000012 -0.600000024 -0.300000012 
0.300000012 -0.600000024 -0.150000006 
0.300000012 -0.450000018 -0.300000012 
0.300000012 -0.450000018 -0.150000006 
0.450000018 -0.600000024 -0.300000012 
0.450000018 -0.600000024 -0.150000006 
0.450000018 -0.450000018 -0.300000012 
0.450000018 -0.450000018 -0.150000006 
0.300000012 -0.300000012 -0.75 
0.300000012 -0.150000006 -0.900000036 
0.300000012 -0.150000006 -0.75 
0.450000018 -0.300000012 -0.75 
0.450000018 -0.150000006 -0.75 
0.300000012 -0.300000012 -0.600000024 
0.300000012 -0.300000012 -0.450000018 
0.300000012 -0.150000006 -0.600000024 
0.300000012 -0.150000006 -0.450000018 
0.450000018 -0.300000012 -0.600000024 
0.450000018 -0.300000012 -0.450000018 
0.450000018 -0.150000006 -0.600000024 
0.450000018 -0.150000006 -0.450000018 
0.300000012 -0.300000012 -0.300000012 
0.300000012 -0.300000012 -0.150000006 
0.300000012 -0.150000006 -0.300000012 
0.300000012 -0.150000006 -0.150000006 
0.450000018 -0.300000012 -0.300000012 
0.450000018 -0.300000012 -0.150000006 
0.450000018 -0.150000006 -0.300000012 
0.450000018 -0.150000006 -0.150000006 
0.600000024 -0.75 -0.150000006 
0.600000024 -0.600000024 -0.450000018 
0.600000024 -0.450000018 -0.600000024 
0.600000024 -0.450000018 -0.450000018 
0.75 -0.450000018 -0.450000018 
0.600000024 -0.600000024 -0.300000012 
0.600000024 -0.600000024 -0.150000006 
0.600000024 -0.450000018 -0.300000012 
0.600000024 -0.450000018 -0.150000006 
0.75 -0.600000024 -0.150000006 
0.75 -0.450000018 -0.300000012 
0.75 -0.450000018 -0.150000006 
0.600000024 -0.150000006 -0.75 
0.600000024 -0.300000012 -0.600000024 
0.600000024 -0.300000012 -0.450000018 
0.600000024 -0.150000006 -0.600000024 
0.600000024 -0.150000006 -0.450000018 
0.75 -0.300000012 -0.450000018 
0.75 -0.150000006 -0.600000024 
0.75 -0.150000006 -0.450000018 
0.600000024 -0.300000012 -0.300000012 
0.600000024 -0.300000012 -0.150000006 
0.600000024 -0.150000006 -0.300000012 
0.600000024 -0.150000006 -0.150000006 
0.75 -0.300000012 -0.300000012 
0.75 -0.300000012 -0.150000006 
0.75 -0.150000006 -0.300000012 
0.75 -0.150000006 -0.150000006 
0.900000036 -0.300000012 -0.150000006 
0.900000036 -0.150000006 -0.300000012 
0.900000036 -0.150000006 -0.150000006 
0 -0.900000036 0 
0 -0.900000036 0.150000006 
0 -0.75 0 
0 -0.75 0.150000006 
0.150000006 -0.900000036 0 
0.150000006 -0.900000036 0.150000006 
0.150000006 -0.75 0 
0.150000006 -0.75 0.150000006 
0 -0.900000036 0.300000012 
0 -0.75 0.300000012 
0 -0.75 0.450000018 
0.150000006 -0.900000036 0.300000012 
0.150000006 -0.75 0.300000012 
0.150000006 -0.75 0.450000018 
0 -0.75 0.600000024 
0.150000006 -0.75 0.600000024 
0 -0.600000024 0 
0 -0.600000024 0.150000006 
0 -0.450000018 0 
0 -0.450000018 0.150000006 
0.150000006 -0.600000024 0 
0.150000006 -0.600000024 0.150000006 
0.150000006 -0.450000018 0 
0.150000006 -0.450000018 0.150000006 
0 -0.600000024 0.300000012 
0 -0.600000024 0.450000018 
0 -0.450000018 0.300000012 
0 -0.450000018 0.450000018 
0.150000006 -0.600000024 0.300000012 
0.150000006 -0.600000024 0.450000018 
0.150000006 -0.450000018 0.300000012 
0.150000006 -0.450000018 0.450000018 
0 -0.600000024 0.600000024 
0 -0.600000024 0.75 
0 -0.450000018 0.600000024 
0 -0.450000018 0.75 
0.150000006 -0.600000024 0.600000024 
0.150000006 -0.600000024 0.75 
0.150000006 -0.450000018 0.600000024 
0.150000006 -0.450000018 0.75 
0 -0.300000012 0 
0 -0.300000012 0.150000006 
0 -0.150000006 0 
0 -0.150000006 0.150000006 
0.150000006 -0.300000012 0 
0.150000006 -0.300000012 0.150000006 
0.150000006 -0.150000006 0 
0.150000006 -0.150000006 0.150000006 
0 -0.300000012 0.300000012 
0 -0.300000012 0.450000018 
0 -0.150000006 0.300000012 
0 -0.150000006 0.450000018 
0.150000006 -0.300000012 0.300000012 
0.150000006 -0.300000012 0.450000018 
0.150000006 -0.150000006 0.300000012 
0.150000006 -0.150000006 0.450000018 
0 -0.300000012 0.600000024 
0 -0.300000012 0.75 
0 -0.150000006 0.600000024 
0 -0.150000006 0.75 
0.150000006 -0.300000012 0.600000024 
0.150000006 -0.300000012 0.75 
0.150000006 -0.150000006 0.600000024 
0.150000006 -0.150000006 0.75 
0 -0.300000012 0.900000036 
0 -0.150000006 0.900000036 
0.150000006 -0.300000012 0.900000036 
0.150000006 -0.150000006 0.900000036 
0.300000012 -0.900000036 0 
0.300000012 -0.900000036 0.150000006 
0.300000012 -0.75 0 
0.300000012 -0.75 0.150000006 
0.450000018 -0.75 0 
0.450000018 -0.75 0.150000006 
0.300000012 -0.900000036 0.300000012 
0.300000012 -0.75 0.300000012 
0.300000012 -0.75 0.450000018 
0.450000018 -0.75 0.300000012 
0.450000018 -0.75 0.450000018 
0.300000012 -0.600000024 0 
0.300000012 -0.600000024 0.150000006 
0.300000012 -0.450000018 0 
0.300000012 -0.450000018 0.150000006 
0.450000018 -0.600000024 0 
0.450000018 -0.600000024 0.150000006 
0.450000018 -0.450000018 0 
0.450000018 -0.450000018 0.150000006 
0.300000012 -0.600000024 0.300000012 
0.300000012 -0.600000024 0.450000018 
0.300000012 -0.450000018 0.300000012 
0.300000012 -0.450000018 0.450000018 
0.450000018 -0.600000024 0.300000012 
0.450000018 -0.600000024 0.450000018 
0.450000018 -0.450000018 0.300000012 
0.450000018 -0.450000018 0.450000018 
0.300000012 -0.600000024 0.600000024 
0.300000012 -0.450000018 0.600000024 
0.300000012 -0.450000018 0.75 
0.450000018 -0.600000024 0.600000024 
0.450000018 -0.450000018 0.600000024 
0.450000018 -0.450000018 0.75 
0.300000012 -0.300000012 0 
0.300000012 -0.300000012 0.150000006 
0.300000012 -0.150000006 0 
0.300000012 -0.150000006 0.150000006 
0.450000018 -0.300000012 0 
0.450000018 -0.300000012 0.150000006 
0.450000018 -0.150000006 0 
0.450000018 -0.150000006 0.150000006 
0.300000012 -0.300000012 0.300000012 
0.300000012 -0.300000012 0.450000018 
0.300000012 -0.150000006 0.300000012 
0.300000012 -0.150000006 0.450000018 
0.450000018 -0.300000012 0.300000012 
0.450000018 -0.300000012 0.450000018 
0.450000018 -0.150000006 0.300000012 
0.450000018 -0.150000006 0.450000018 
0.300000012 -0.300000012 0.600000024 
0.300000012 -0.300000012 0.75 
0.300000012 -0.150000006 0.600000024 
0.300000012 -0.150000006 0.75 
0.450000018 -0.300000012 0.600000024 
0.450000018 -0.300000012 0.75 
0.450000018 -0.150000006 0.600000024 
0.450000018 -0.150000006 0.75 
0.300000012 -0.150000006 0.900000036 
0.600000024 -0.75 0 
0.600000024 -0.75 0.150000006 
0.600000024 -0.600000024 0 
0.600000024 -0.600000024 0.150000006 
0.600000024 -0.450000018 0 
0.600000024 -0.450000018 0.150000006 
0.75 -0.600000024 0 
0.75 -0.600000024 0.150000006 
0.75 -0.450000018 0 
0.75 -0.450000018 0.150000006 
0.600000024 -0.600000024 0.300000012 
0.600000024 -0.600000024 0.450000018 
0.600000024 -0.450000018 0.300000012 
0.600000024 -0.450000018 0.450000018 
0.75 -0.450000018 0.300000012 
0.75 -0.450000018 0.450000018 
0.600000024 -0.450000018 0.600000024 
0.600000024 -0.300000012 0 
0.600000024 -0.300000012 0.150000006 
0.600000024 -0.150000006 0 
0.600000024 -0.150000006 0.150000006 
0.75 -0.300000012 0 
0.75 -0.300000012 0.150000006 
0.75 -0.150000006 0 
0.75 -0.150000006 0.150000006 
0.600000024 -0.300000012 0.300000012 
0.600000024 -0.300000012 0.450000018 
0.600000024 -0.150000006 0.300000012 
0.600000024 -0.150000006 0.450000018 
0.75 -0.300000012 0.300000012 
0.75 -0.300000012 0.450000018 
0.75 -0.150000006 0.300000012 
0.75 -0.150000006 0.450000018 
0.600000024 -0.300000012 0.600000024 
0.600000024 -0.150000006 0.600000024 
0.600000024 -0.150000006 0.75 
0.75 -0.150000006 0.600000024 
0.900000036 -0.300000012 0 
0.900000036 -0.300000012 0.150000006 
0.900000036 -0.150000006 0 
0.900000036 -0.150000006 0.150000006 
0.900000036 -0.150000006 0.300000012 
0 0 -0.900000036 
0 0 -0.75 
0 0.150000006 -0.900000036 
0 0.150000006 -0.75 
0.150000006 0 -0.900000036 
0.150000006 0 -0.75 
0.150000006 0.150000006 -0.900000036 
0.150000006 0.150000006 -0.75 
0 0 -0.600000024 
0 0 -0.450000018 
0 0.150000006 -0.600000024 
0 0.150000006 -0.450000018 
0.150000006 0 -0.600000024 
0.150000006 0 -0.450000018 
0.150000006 0.150000006 -0.600000024 
0.150000006 0.150000006 -0.450000018 
0 0 -0.300000012 
0 0 -0.150000006 
0 0.150000006 -0.300000012 
0 0.150000006 -0.150000006 
0.150000006 0 -0.300000012 
0.150000006 0 -0.150000006 
0.150000006 0.150000006 -0.300000012 
0.150000006 0.150000006 -0.150000006 
0 0.300000012 -0.900000036 
0 0.300000012 -0.75 
0 0.450000018 -0.75 
0.150000006 0.300000012 -0.900000036 
0.150000006 0.300000012 -0.75 
0.150000006 0.450000018 -0.75 
0 0.300000012 -0.600000024 
0 0.300000012 -0.450000018 
0 0.450000018 -0.600000024 
0 0.450000018 -0.450000018 
0.150000006 0.300000012 -0.600000024 
0.150000006 0.300000012 -0.450000018 
0.150000006 0.450000018 -0.600000024 
0.150000006 0.450000018 -0.450000018 
0 0.300000012 -0.300000012 
0 0.300000012 -0.150000006 
0 0.450000018 -0.300000012 
0 0.450000018 -0.150000006 
0.150000006 0.300000012 -0.300000012 
0.150000006 0.300000012 -0.150000006 
0.150000006 0.450000018 -0.300000012 
0.150000006 0.450000018 -0.150000006 
0 0.600000024 -0.75 
0.150000006 0.600000024 -0.75 
0 0.600000024 -0.600000024 
0 0.600000024 -0.450000018 
0 0.75 -0.600000024 
0 0.75 -0.450000018 
0.150000006 0.600000024 -0.600000024 
0.150000006 0.600000024 -0.450000018 
0.150000006 0.75 -0.600000024 
0.150000006 0.75 -0.450000018 
0 0.600000024 -0.300000012 
0 0.600000024 -0.150000006 
0 0.75 -0.300000012 
0 0.75 -0.150000006 
0.150000006 0.600000024 -0.300000012 
0.150000006 0.600000024 -0.150000006 
0.150000006 0.75 -0.300000012 
0.150000006 0.75 -0.150000006 
0 0.900000036 -0.300000012 
0 0.900000036 -0.150000006 
0.150000006 0.900000036 -0.300000012 
0.150000006 0.900000036 -0.150000006 
0.300000012 0 -0.900000036 
0.300000012 0 -0.75 
0.300000012 0.150000006 -0.900000036 
0.300000012 0.150000006 -0.75 
0.450000018 0 -0.75 
0.450000018 0.150000006 -0.75 
0.300000012 0 -0.600000024 
0.300000012 0 -0.450000018 
0.300000012 0.150000006 -0.600000024 
0.300000012 0.150000006 -0.450000018 
0.450000018 0 -0.600000024 
0.450000018 0 -0.450000018 
0.450000018 0.150000006 -0.600000024 
0.450000018 0.150000006 -0.450000018 
0.300000012 0 -0.300000012 
0.300000012 0 -0.150000006 
0.300000012 0.150000006 -0.300000012 
0.300000012 0.150000006 -0.150000006 
0.450000018 0 -0.300000012 
0.450000018 0 -0.150000006 
0.450000018 0.150000006 -0.300000012 
0.450000018 0.150000006 -0.150000006 
0.300000012 0.300000012 -0.75 
0.300000012 0.450000018 -0.75 
0.450000018 0.300000012 -0.75 
0.450000018 0.450000018 -0.75 
0.300000012 0.300000012 -0.600000024 
0.300000012 0.300000012 -0.450000018 
0.300000012 0.450000018 -0.600000024 
0.300000012 0.450000018 -0.450000018 
0.450000018 0.300000012 -0.600000024 
0.450000018 0.300000012 -0.450000018 
0.450000018 0.450000018 -0.600000024 
0.450000018 0.450000018 -0.450000018 
0.300000012 0.300000012 -0.300000012 
0.300000012 0.300000012 -0.150000006 
0.300000012 0.450000018 -0.300000012 
0.300000012 0.450000018 -0.150000006 
0.450000018 0.300000012 -0.300000012 
0.450000018 0.300000012 -0.150000006 
0.450000018 0.450000018 -0.300000012 
0.450000018 0.450000018 -0.150000006 
0.300000012 0.600000024 -0.600000024 
0.300000012 0.600000024 -0.450000018 
0.300000012 0.75 -0.450000018 
0.450000018 0.600000024 -0.600000024 
0.450000018 0.600000024 -0.450000018 
0.450000018 0.75 -0.450000018 
0.300000012 0.600000024 -0.300000012 
0.300000012 0.600000024 -0.150000006 
0.300000012 0.75 -0.300000012 
0.300000012 0.75 -0.150000006 
0.450000018 0.600000024 -0.300000012 
0.450000018 0.600000024 -0.150000006 
0.450000018 0.75 -0.300000012 
0.450000018 0.75 -0.150000006 
0.300000012 0.900000036 -0.300000012 
0.300000012 0.900000036 -0.150000006 
0.600000024 0 -0.75 
0.600000024 0.150000006 -0.75 
0.600000024 0 -0.600000024 
0.600000024 0 -0.450000018 
0.600000024 0.150000006 -0.600000024 
0.600000024 0.150000006 -0.450000018 
0.75 0 -0.600000024 
0.75 0 -0.450000018 
0.75 0.150000006 -0.600000024 
0.75 0.150000006 -0.450000018 
0.600000024 0 -0.300000012 
0.600000024 0 -0.150000006 
0.600000024 0.150000006 -0.300000012 
0.600000024 0.150000006 -0.150000006 
0.75 0 -0.300000012 
0.75 0 -0.150000006 
0.75 0.150000006 -0.300000012 
0.75 0.150000006 -0.150000006 
0.600000024 0.300000012 -0.600000024 
0.600000024 0.300000012 -0.450000018 
0.600000024 0.450000018 -0.600000024 
0.600000024 0.450000018 -0.450000018 
0.75 0.300000012 -0.450000018 
0.75 0.450000018 -0.450000018 
0.600000024 0.300000012 -0.300000012 
0.600000024 0.300000012 -0.150000006 
0.600000024 0.450000018 -0.300000012 
0.600000024 0.450000018 -0.150000006 
0.75 0.300000012 -0.300000012 
0.75 0.300000012 -0.150000006 
0.75 0.450000018 -0.300000012 
0.75 0.450000018 -0.150000006 
0.600000024 0.600000024 -0.450000018 
0.600000024 0.600000024 -0.300000012 
0.600000024 0.600000024 -0.150000006 
0.600000024 0.75 -0.150000006 
0.75 0.600000024 -0.150000006 
0.900000036 0 -0.300000012 
0.900000036 0 -0.150000006 
0.900000036 0.150000006 -0.300000012 
0.900000036 0.150000006 -0.150000006 
0.900000036 0.300000012 -0.150000006 
0 0 0 
0 0 0.150000006 
0 0.150000006 0 
0 0.150000006 0.150000006 
0.150000006 0 0 
0.150000006 0 0.150000006 
0.150000006 0.150000006 0 
0.150000006 0.150000006 0.150000006 
0 0 0.300000012 
0 0 0.450000018 
0 0.150000006 0.300000012 
0 0.150000006 0.450000018 
0.150000006 0 0.300000012 
0.150000006 0 0.450000018 
0.150000006 0.150000006 0.300000012 
0.150000006 0.150000006 0.450000018 
0 0 0.600000024 
0 0 0.75 
0 0.150000006 0.600000024 
0 0.150000006 0.75 
0.150000006 0 0.600000024 
0.150000006 0 0.75 
0.150000006 0.150000006 0.600000024 
0.150000006 0.150000006 0.75 
0 0 0.900000036 
0 0.150000006 0.900000036 
0.150000006 0 0.900000036 
0.150000006 0.150000006 0.900000036 
0 0.300000012 0 
0 0.300000012 0.150000006 
0 0.450000018 0 
0 0.450000018 0.150000006 
0.150000006 0.300000012 0 
0.150000006 0.300000012 0.150000006 
0.150000006 0.450000018 0 
0.150000006 0.450000018 0.150000006 
0 0.300000012 0.300000012 
0 0.300000012 0.450000018 
0 0.450000018 0.300000012 
0 0.450000018 0.450000018 
0.150000006 0.300000012 0.300000012 
0.150000006 0.300000012 0.450000018 
0.150000006 0.450000018 0.300000012 
0.150000006 0.450000018 0.450000018 
0 0.300000012 0.600000024 
0 0.300000012 0.75 
0 0.450000018 0.600000024 
0 0.450000018 0.75 
0.150000006 0.300000012 0.600000024 
0.150000006 0.300000012 0.75 
0.150000006 0.450000018 0.600000024 
0.150000006 0.450000018 0.75 
0 0.300000012 0.900000036 
0.150000006 0.300000012 0.900000036 
0 0.600000024 0 
0 0.600000024 0.150000006 
0 0.75 0 
0 0.75 0.150000006 
0.150000006 0.600000024 0 
0.150000006 0.600000024 0.150000006 
0.150000006 0.75 0 
0.150000006 0.75 0.150000006 
0 0.600000024 0.300000012 
0 0.600000024 0.450000018 
0 0.75 0.300000012 
0 0.75 0.450000018 
0.150000006 0.600000024 0.300000012 
0.150000006 0.600000024 0.450000018 
0.150000006 0.75 0.300000012 
0.150000006 0.75 0.450000018 
0 0.600000024 0.600000024 
0 0.600000024 0.75 
0 0.75 0.600000024 
0.150000006 0.600000024 0.600000024 
0.150000006 0.600000024 0.75 
0.150000006 0.75 0.600000024 
0 0.900000036 0 
0 0.900000036 0.150000006 
0.150000006 0.900000036 0 
0.150000006 0.900000036 0.150000006 
0 0.900000036 0.300000012 
0.150000006 0.900000036 0.300000012 
0.300000012 0 0 
0.300000012 0 0.150000006 
0.300000012 0.150000006 0 
0.300000012 0.150000006 0.150000006 
0.450000018 0 0 
0.450000018 0 0.150000006 
0.450000018 0.150000006 0 
0.450000018 0.150000006 0.150000006 
0.300000012 0 0.300000012 
0.300000012 0 0.450000018 
0.300000012 0.150000006 0.300000012 
0.300000012 0.150000006 0.450000018 
0.450000018 0 0.300000012 
0.450000018 0 0.450000018 
0.450000018 0.150000006 0.300000012 
0.450000018 0.150000006 0.450000018 
0.300000012 0 0.600000024 
0.300000012 0 0.75 
0.300000012 0.150000006 0.600000024 
0.300000012 0.150000006 0.75 
0.450000018 0 0.600000024 
0.450000018 0 0.75 
0.450000018 0.150000006 0.600000024 
0.450000018 0.150000006 0.75 
0.300000012 0 0.900000036 
0.300000012 0.150000006 0.900000036 
0.300000012 0.300000012 0 
0.300000012 0.300000012 0.150000006 
0.300000012 0.450000018 0 
0.300000012 0.450000018 0.150000006 
0.450000018 0.300000012 0 
0.450000018 0.300000012 0.150000006 
0.450000018 0.450000018 0 
0.450000018 0.450000018 0.150000006 
0.300000012 0.300000012 0.300000012 
0.300000012 0.300000012 0.450000018 
0.300000012 0.450000018 0.300000012 
0.300000012 0.450000018 0.450000018 
0.450000018 0.300000012 0.300000012 
0.450000018 0.300000012 0.450000018 
0.450000018 0.450000018 0.300000012 
0.450000018 0.450000018 0.450000018 
0.300000012 0.300000012 0.600000024 
0.300000012 0.300000012 0.75 
0.300000012 0.450000018 0.600000024 
0.300000012 0.450000018 0.75 
0.450000018 0.300000012 0.600000024 
0.450000018 0.300000012 0.75 
0.450000018 0.450000018 0.600000024 
0.450000018 0.450000018 0.75 
0.300000012 0.600000024 0 
0.300000012 0.600000024 0.150000006 
0.300000012 0.75 0 
0.300000012 0.75 0.150000006 
0.450000018 0.600000024 0 
0.450000018 0.600000024 0.150000006 
0.450000018 0.75 0 
0.450000018 0.75 0.150000006 
0.300000012 0.600000024 0.300000012 
0.300000012 0.600000024 0.450000018 
0.300000012 0.75 0.300000012 
0.300000012 0.75 0.450000018 
0.450000018 0.600000024 0.300000012 
0.450000018 0.600000024 0.450000018 
0.450000018 0.75 0.300000012 
0.450000018 0.75 0.450000018 
0.300000012 0.600000024 0.600000024 
0.450000018 0.600000024 0.600000024 
0.300000012 0.900000036 0 
0.300000012 0.900000036 0.150000006 
0.300000012 0.900000036 0.300000012 
0.600000024 0 0 
0.600000024 0 0.150000006 
0.600000024 0.150000006 0 
0.600000024 0.150000006 0.150000006 
0.75 0 0 
0.75 0 0.150000006 
0.75 0.150000006 0 
0.75 0.150000006 0.150000006 
0.600000024 0 0.300000012 
0.600000024 0 0.450000018 
0.600000024 0.150000006 0.300000012 
0.600000024 0.150000006 0.450000018 
0.75 0 0.300000012 
0.75 0 0.450000018 
0.75 0.150000006 0.300000012 
0.75 0.150000006 0.450000018 
0.600000024 0 0.600000024 
0.600000024 0 0.75 
0.600000024 0.150000006 0.600000024 
0.600000024 0.150000006 0.75 
0.75 0 0.600000024 
0.75 0.150000006 0.600000024 
0.600000024 0.300000012 0 
0.600000024 0.300000012 0.150000006 
0.600000024 0.450000018 0 
0.600000024 0.450000018 0.150000006 
0.75 0.300000012 0 
0.75 0.300000012 0.150000006 
0.75 0.450000018 0 
0.75 0.450000018 0.150000006 
0.600000024 0.300000012 0.300000012 
0.600000024 0.300000012 0.450000018 
0.600000024 0.450000018 0.300000012 
0.600000024 0.450000018 0.450000018 
0.75 0.300000012 0.300000012 
0.75 0.300000012 0.450000018 
0.75 0.450000018 0.300000012 
0.75 0.450000018 0.450000018 
0.600000024 0.300000012 0.600000024 
0.600000024 0.450000018 0.600000024 
0.600000024 0.600000024 0 
0.600000024 0.600000024 0.150000006 
0.600000024 0.75 0 
0.600000024 0.75 0.150000006 
0.75 0.600000024 0 
0.75 0.600000024 0.150000006 
0.600000024 0.600000024 0.300000012 
0.600000024 0.600000024 0.450000018 
0.900000036 0 0 
0.900000036 0 0.150000006 
0.900000036 0.150000006 0 
0.900000036 0.150000006 0.150000006 
0.900000036 0 0.300000012 
0.900000036 0.150000006 0.300000012 
0.900000036 0.300000012 0 
0.900000036 0.300000012 0.150000006 
